<svg width="396" height="126" viewBox="0 0 396 126" fill="none" xmlns="http://www.w3.org/2000/svg">
<g clip-path="url(#clip0_143_181)">
<path d="M59.9119 27.8385L51.3884 31.5722C49.858 33.1026 46.5048 33.1026 44.9688 31.5722L34.2183 26.7642C33.2684 30.4936 34.2239 36.2151 34.2267 36.2151C33.26 35.5409 32.3731 35.1897 31.6499 35.0079C32.7159 46.581 39.5005 55.5032 47.7163 55.5032C56.0677 55.5032 62.9377 46.2844 63.8288 34.4357C63.9407 33.6705 64.0009 32.8871 64.0121 32.094L61.4073 35.0862C62.1669 33.4033 61.0926 30.3481 59.9119 27.8385Z" fill="#388DA8"/>
<path d="M54.6606 68.7215H81.984C78.3454 61.3213 71.0432 56.0474 62.4441 55.2612C62.3966 57.4841 58.516 63.3888 54.6606 68.7215Z" fill="#388DA8"/>
<path d="M32.9903 55.2625C24.3884 56.0486 17.0904 61.3211 13.4448 68.7213H40.0953C36.5784 63.3887 33.0378 57.4839 32.9903 55.2625Z" fill="#388DA8"/>
<path d="M47.6156 97.6127C48.956 97.6127 50.0427 96.5261 50.0427 95.1856C50.0427 93.8452 48.956 92.7585 47.6156 92.7585C46.2751 92.7585 45.1885 93.8452 45.1885 95.1856C45.1885 96.5261 46.2751 97.6127 47.6156 97.6127Z" fill="#388DA8"/>
<path d="M85.964 121.994H9.26927C8.19072 121.994 7.31641 122.87 7.31641 123.948C7.31641 125.027 8.19072 125.901 9.26927 125.901H85.964C87.0425 125.901 87.9169 125.026 87.9169 123.948C87.9155 122.87 87.0411 121.994 85.964 121.994Z" fill="#388DA8"/>
<path d="M13.7036 120.839H81.5321C84.0515 120.839 86.0981 118.796 86.0981 116.271L95.2316 73.2874C95.2316 70.7652 93.1864 68.72 90.6641 68.72H81.9854C82.1085 68.9648 82.2274 69.211 82.3407 69.4586H90.2501C92.7471 69.4586 94.7741 71.4604 94.7741 73.9281L85.6379 115.625C85.6379 118.096 83.6137 120.097 81.1152 120.097H14.1163C11.6179 120.097 9.59366 118.093 9.59366 115.625L0.458841 73.9309C0.458841 71.459 2.48305 69.4614 4.98009 69.4614H13.0895C13.2028 69.2096 13.3245 68.9662 13.4448 68.7228H4.56741C2.04519 68.7228 0 70.7666 0 73.2902L9.13342 116.274C9.13482 118.796 11.1814 120.839 13.7036 120.839Z" fill="#388DA8"/>
<path d="M40.5862 69.4599C40.4225 69.2137 40.2589 68.9689 40.0924 68.7227H13.4447C13.3244 68.9675 13.2027 69.2151 13.0908 69.4599H40.5862Z" fill="#388DA8"/>
<path d="M54.6591 68.7227H49.6231L49.3699 65.1149C51.0765 64.2336 52.3985 62.3996 52.3985 60.5349C52.3985 60.5349 49.8609 61.6554 47.2771 61.6554C44.6891 61.6554 42.1543 60.5349 42.1543 60.5349C42.1543 62.3996 43.4749 64.2336 45.1801 65.1149L44.9269 68.7227H40.0938C40.2574 68.9717 40.4197 69.2179 40.5876 69.4599H44.8766H49.6734H54.1219H82.3405C82.2272 69.2109 82.1083 68.9647 81.9852 68.7227H54.6591Z" fill="#388DA8"/>
<path d="M22.781 13.7473L22.6523 15.5184C21.9683 15.6345 21.4409 16.2332 21.4409 16.9564C21.4409 17.6069 21.8661 18.1539 22.4537 18.3455L21.28 34.7924L22.8999 39.655L24.5199 34.7924L23.3448 18.3455C23.9309 18.1525 24.3576 17.6069 24.3576 16.9564C24.3576 16.2318 23.833 15.6345 23.1461 15.5184L23.0272 13.8886L25.8376 15.5156L25.9509 15.5827L31.2723 18.6617L30.9268 23.0528C30.177 24.7245 29.6356 26.5193 29.3614 28.4092C29.2202 29.3759 29.1516 30.3649 29.1516 31.3749C29.1516 31.7834 29.1656 32.189 29.1866 32.5933C29.2202 33.1809 29.2761 33.7642 29.3614 34.3392C29.3754 34.514 29.3908 34.6875 29.4034 34.861C30.5757 48.1085 38.327 58.3457 47.7178 58.3457C57.2275 58.3457 65.0544 47.8441 66.07 34.3462C66.2099 33.3767 66.2826 32.3835 66.2826 31.3721C66.2826 30.3607 66.2085 29.3689 66.07 28.3994C65.7818 26.4144 65.1957 24.5357 64.3857 22.794L64.0416 19.3653L69.4833 16.2164L70.699 15.5156L75.7616 12.5891C76.0791 12.2687 76.0791 11.7553 75.7616 11.4392L48.8397 0.238163C48.5236 -0.0793876 48.0116 -0.0793876 47.6968 0.238163L20.7764 11.4378C20.456 11.7539 20.456 12.2673 20.7764 12.5877L22.781 13.7473ZM63.8304 34.4371C62.9393 46.2858 56.0693 55.5045 47.7178 55.5045C39.5021 55.5045 32.716 46.5823 31.6514 35.0092C32.3747 35.1911 33.2602 35.5422 34.2282 36.2165C34.2282 36.2165 33.27 30.495 34.2198 26.7655L44.9704 31.5735C46.5064 33.1039 49.8595 33.1039 51.3899 31.5735L59.912 27.8385C61.0927 30.3481 62.1671 33.4033 61.4075 35.0862L64.0122 32.0939C64.0024 32.8871 63.9423 33.6705 63.8304 34.4371Z" fill="#388DA8"/>
<path d="M122.486 87.3499C124.167 87.3499 125.554 87.9016 126.647 89.0048C127.739 90.1081 128.296 91.5108 128.317 93.213C128.307 94.9467 127.745 96.3547 126.631 97.4369C125.517 98.5192 124.135 99.0655 122.486 99.076C120.805 99.076 119.418 98.5218 118.325 97.4133C117.232 96.3048 116.675 94.9047 116.654 93.213C116.654 91.5318 117.201 90.1396 118.293 89.0364C119.386 87.9331 120.784 87.371 122.486 87.3499ZM118.073 93.213C118.073 94.5474 118.493 95.648 119.334 96.5149C120.174 97.3817 121.225 97.8257 122.486 97.8467C123.747 97.8467 124.792 97.4054 125.622 96.5228C126.452 95.6402 126.878 94.5369 126.899 93.213C126.899 91.9206 126.489 90.8305 125.67 89.9426C124.85 89.0547 123.783 88.6003 122.47 88.5793C121.188 88.5898 120.14 89.039 119.326 89.9268C118.511 90.8147 118.094 91.9101 118.073 93.213ZM133.849 91.2271C134.774 91.2271 135.473 91.4951 135.946 92.0309C136.418 92.5668 136.655 93.2813 136.655 94.1744V98.7923H135.426V94.3163C135.426 93.7489 135.294 93.2839 135.031 92.9214C134.769 92.5589 134.338 92.3724 133.739 92.3619C132.983 92.3619 132.413 92.6115 132.029 93.1105C131.646 93.6096 131.454 94.3005 131.454 95.1831V98.7923H130.224V93.0554C130.224 93.0028 130.203 92.4565 130.161 91.4163H131.328C131.349 92.1518 131.359 92.5563 131.359 92.6298H131.391C131.59 92.2096 131.913 91.8707 132.36 91.6133C132.807 91.3558 133.303 91.2271 133.849 91.2271ZM142.345 91.2271C143.437 91.2271 144.291 91.5712 144.906 92.2595C145.52 92.9477 145.833 93.9222 145.843 95.1831V95.4826H139.886C139.949 96.1655 140.206 96.7277 140.658 97.169C141.11 97.6103 141.662 97.8362 142.313 97.8467C143.311 97.8467 144.089 97.4737 144.646 96.7277L145.576 97.4527C145.187 97.957 144.73 98.3379 144.204 98.5953C143.679 98.8528 143.049 98.9815 142.313 98.9815C141.189 98.9815 140.285 98.6163 139.602 97.8861C138.919 97.1558 138.572 96.2286 138.562 95.1043C138.562 93.9905 138.911 93.0711 139.61 92.3461C140.309 91.6211 141.22 91.2481 142.345 91.2271ZM144.52 94.4423C144.488 93.8014 144.28 93.2944 143.897 92.9214C143.513 92.5484 142.975 92.3619 142.281 92.3619C141.651 92.3619 141.12 92.5405 140.69 92.8978C140.259 93.255 139.991 93.7699 139.886 94.4423H144.52ZM154.386 91.2271C155.563 91.2376 156.398 91.6842 156.892 92.5668L155.867 93.2445C155.51 92.6561 154.99 92.3619 154.307 92.3619C153.897 92.3619 153.553 92.4565 153.275 92.6456C152.996 92.8347 152.857 93.0817 152.857 93.3864C152.857 93.8802 153.472 94.2375 154.701 94.4581C155.584 94.6157 156.209 94.8731 156.577 95.2304C156.944 95.5876 157.128 96.0657 157.128 96.6646C157.128 97.3896 156.86 97.957 156.324 98.3668C155.789 98.7766 155.074 98.9815 154.181 98.9815C153.487 98.9815 152.917 98.8711 152.471 98.6505C152.024 98.4298 151.638 98.0831 151.312 97.6103L152.29 96.8538C152.594 97.2215 152.894 97.4789 153.188 97.626C153.482 97.7731 153.813 97.8467 154.181 97.8467C154.654 97.8467 155.043 97.7442 155.347 97.5394C155.652 97.3345 155.804 97.0586 155.804 96.7119C155.804 96.3547 155.644 96.0867 155.324 95.9081C155.003 95.7295 154.47 95.5666 153.724 95.4195C152.988 95.2619 152.455 95.0255 152.124 94.7103C151.793 94.3951 151.628 93.959 151.628 93.4021C151.628 92.7822 151.882 92.2673 152.392 91.8576C152.902 91.4478 153.566 91.2376 154.386 91.2271ZM160.706 89.3201V91.4163H162.881V92.4565H160.706V96.3967C160.706 96.9851 160.801 97.3739 160.99 97.563C161.179 97.7521 161.452 97.8467 161.809 97.8467C162.219 97.8467 162.582 97.7626 162.897 97.5945L162.944 98.7135C162.524 98.8922 162.046 98.9815 161.51 98.9815C160.753 98.9815 160.225 98.795 159.926 98.422C159.626 98.049 159.477 97.4369 159.477 96.5858V92.4565H157.869V91.4163H159.477V89.3201H160.706ZM167.909 91.2271C169.054 91.2271 169.989 91.5817 170.714 92.291C171.439 93.0002 171.817 93.938 171.849 95.1043C171.849 96.2286 171.481 97.1506 170.746 97.8703C170.01 98.5901 169.064 98.9605 167.909 98.9815C166.753 98.9815 165.812 98.6163 165.087 97.8861C164.362 97.1558 163.989 96.2286 163.968 95.1043C163.968 93.9695 164.336 93.0423 165.072 92.3225C165.807 91.6028 166.753 91.2376 167.909 91.2271ZM165.292 95.1043C165.292 95.9134 165.537 96.5674 166.025 97.0665C166.514 97.5656 167.142 97.8257 167.909 97.8467C168.676 97.8467 169.301 97.5919 169.784 97.0823C170.268 96.5727 170.514 95.9134 170.525 95.1043C170.525 94.3057 170.281 93.649 169.792 93.1342C169.304 92.6193 168.67 92.3619 167.893 92.3619C167.136 92.3619 166.516 92.6167 166.033 93.1263C165.55 93.6359 165.303 94.2952 165.292 95.1043ZM177.602 91.2271C178.768 91.2271 179.703 91.5949 180.407 92.3304C181.111 93.0659 181.468 93.9905 181.479 95.1043C181.479 96.2076 181.122 97.1243 180.407 97.8546C179.693 98.5848 178.82 98.9605 177.791 98.9815C177.16 98.9815 176.59 98.8449 176.081 98.5717C175.571 98.2985 175.195 97.936 174.954 97.4842H174.922V102.386H173.693V91.4163H174.922V92.488H174.954C175.679 91.6474 176.561 91.2271 177.602 91.2271ZM174.922 95.1043C174.922 95.9134 175.167 96.5674 175.655 97.0665C176.144 97.5656 176.772 97.8257 177.539 97.8467C178.306 97.8467 178.931 97.5919 179.414 97.0823C179.897 96.5727 180.144 95.9134 180.155 95.1043C180.155 94.3057 179.911 93.649 179.422 93.1342C178.933 92.6193 178.3 92.3619 177.523 92.3619C176.766 92.3619 176.146 92.6167 175.663 93.1263C175.18 93.6359 174.933 94.2952 174.922 95.1043ZM190.021 91.2271C191.198 91.2376 192.033 91.6842 192.527 92.5668L191.503 93.2445C191.145 92.6561 190.625 92.3619 189.942 92.3619C189.533 92.3619 189.188 92.4565 188.91 92.6456C188.632 92.8347 188.492 93.0817 188.492 93.3864C188.492 93.8802 189.107 94.2375 190.336 94.4581C191.219 94.6157 191.844 94.8731 192.212 95.2304C192.58 95.5876 192.764 96.0657 192.764 96.6646C192.764 97.3896 192.496 97.957 191.96 98.3668C191.424 98.7766 190.709 98.9815 189.816 98.9815C189.123 98.9815 188.553 98.8711 188.106 98.6505C187.66 98.4298 187.274 98.0831 186.948 97.6103L187.925 96.8538C188.23 97.2215 188.529 97.4789 188.823 97.626C189.118 97.7731 189.449 97.8467 189.816 97.8467C190.289 97.8467 190.678 97.7442 190.983 97.5394C191.287 97.3345 191.44 97.0586 191.44 96.7119C191.44 96.3547 191.279 96.0867 190.959 95.9081C190.638 95.7295 190.105 95.5666 189.359 95.4195C188.624 95.2619 188.09 95.0255 187.76 94.7103C187.429 94.3951 187.263 93.959 187.263 93.4021C187.263 92.7822 187.518 92.2673 188.027 91.8576C188.537 91.4478 189.202 91.2376 190.021 91.2271ZM197.996 91.2271C199.141 91.2271 200.077 91.5817 200.802 92.291C201.527 93.0002 201.905 93.938 201.936 95.1043C201.936 96.2286 201.569 97.1506 200.833 97.8703C200.098 98.5901 199.152 98.9605 197.996 98.9815C196.84 98.9815 195.9 98.6163 195.175 97.8861C194.45 97.1558 194.077 96.2286 194.056 95.1043C194.056 93.9695 194.424 93.0423 195.159 92.3225C195.895 91.6028 196.84 91.2376 197.996 91.2271ZM195.38 95.1043C195.38 95.9134 195.624 96.5674 196.113 97.0665C196.601 97.5656 197.229 97.8257 197.996 97.8467C198.763 97.8467 199.388 97.5919 199.872 97.0823C200.355 96.5727 200.602 95.9134 200.613 95.1043C200.613 94.3057 200.368 93.649 199.88 93.1342C199.391 92.6193 198.758 92.3619 197.98 92.3619C197.224 92.3619 196.604 92.6167 196.121 93.1263C195.637 93.6359 195.39 94.2952 195.38 95.1043ZM205.183 86.8771V98.7923H203.954V86.8771H205.183ZM208.855 91.4163V95.8923C208.855 96.4597 208.989 96.9247 209.257 97.2872C209.525 97.6497 209.953 97.8362 210.542 97.8467C211.298 97.8467 211.868 97.5945 212.252 97.0902C212.635 96.5858 212.827 95.9134 212.827 95.0728V91.4163H214.057V97.1532C214.067 97.4474 214.088 97.9938 214.12 98.7923H212.953C212.943 98.288 212.932 97.8835 212.922 97.5788H212.89C212.701 97.9885 212.383 98.3248 211.937 98.5875C211.49 98.8501 210.983 98.9815 210.416 98.9815C209.512 98.971 208.821 98.7004 208.343 98.1698C207.865 97.6392 207.626 96.9273 207.626 96.0342V91.4163H208.855ZM218.249 89.3201V91.4163H220.424V92.4565H218.249V96.3967C218.249 96.9851 218.343 97.3739 218.533 97.563C218.722 97.7521 218.995 97.8467 219.352 97.8467C219.762 97.8467 220.124 97.7626 220.44 97.5945L220.487 98.7135C220.067 98.8922 219.589 98.9815 219.053 98.9815C218.296 98.9815 217.768 98.795 217.469 98.422C217.169 98.049 217.02 97.4369 217.02 96.5858V92.4565H215.412V91.4163H217.02V89.3201H218.249ZM222.662 87.6336C222.904 87.6336 223.114 87.7203 223.292 87.8937C223.471 88.0671 223.56 88.2798 223.56 88.532C223.56 88.7947 223.476 89.0101 223.308 89.1782C223.14 89.3463 222.925 89.4304 222.662 89.4304C222.399 89.4304 222.184 89.3463 222.016 89.1782C221.848 89.0101 221.764 88.7947 221.764 88.532C221.764 88.2798 221.853 88.0671 222.032 87.8937C222.21 87.7203 222.42 87.6336 222.662 87.6336ZM223.277 91.4163V98.7923H222.047V91.4163H223.277ZM229.234 91.2271C230.38 91.2271 231.315 91.5817 232.04 92.291C232.765 93.0002 233.143 93.938 233.174 95.1043C233.174 96.2286 232.807 97.1506 232.071 97.8703C231.336 98.5901 230.39 98.9605 229.234 98.9815C228.078 98.9815 227.138 98.6163 226.413 97.8861C225.688 97.1558 225.315 96.2286 225.294 95.1043C225.294 93.9695 225.662 93.0423 226.397 92.3225C227.133 91.6028 228.078 91.2376 229.234 91.2271ZM226.618 95.1043C226.618 95.9134 226.862 96.5674 227.351 97.0665C227.839 97.5656 228.467 97.8257 229.234 97.8467C230.001 97.8467 230.626 97.5919 231.11 97.0823C231.593 96.5727 231.84 95.9134 231.851 95.1043C231.851 94.3057 231.606 93.649 231.118 93.1342C230.629 92.6193 229.996 92.3619 229.219 92.3619C228.462 92.3619 227.842 92.6167 227.359 93.1263C226.875 93.6359 226.628 94.2952 226.618 95.1043ZM238.707 91.2271C239.631 91.2271 240.33 91.4951 240.803 92.0309C241.276 92.5668 241.512 93.2813 241.512 94.1744V98.7923H240.283V94.3163C240.283 93.7489 240.151 93.2839 239.889 92.9214C239.626 92.5589 239.195 92.3724 238.596 92.3619C237.84 92.3619 237.27 92.6115 236.886 93.1105C236.503 93.6096 236.311 94.3005 236.311 95.1831V98.7923H235.082V93.0554C235.082 93.0028 235.061 92.4565 235.019 91.4163H236.185C236.206 92.1518 236.216 92.5563 236.216 92.6298H236.248C236.447 92.2096 236.771 91.8707 237.217 91.6133C237.664 91.3558 238.16 91.2271 238.707 91.2271ZM251.457 86.688C251.867 86.688 252.187 86.751 252.419 86.8771L252.245 87.9804C251.951 87.8753 251.673 87.8228 251.41 87.8228C250.895 87.8228 250.546 87.9725 250.362 88.272C250.178 88.5714 250.086 89.0679 250.086 89.7614V91.4163H251.883V92.4565H250.086V98.7923H248.857V92.4565H247.249V91.4163H248.857V89.7456C248.857 87.7072 249.723 86.688 251.457 86.688ZM256.705 91.2271C257.851 91.2271 258.786 91.5817 259.511 92.291C260.236 93.0002 260.614 93.938 260.646 95.1043C260.646 96.2286 260.278 97.1506 259.542 97.8703C258.807 98.5901 257.861 98.9605 256.705 98.9815C255.55 98.9815 254.609 98.6163 253.884 97.8861C253.159 97.1558 252.786 96.2286 252.765 95.1043C252.765 93.9695 253.133 93.0423 253.869 92.3225C254.604 91.6028 255.55 91.2376 256.705 91.2271ZM254.089 95.1043C254.089 95.9134 254.333 96.5674 254.822 97.0665C255.311 97.5656 255.938 97.8257 256.705 97.8467C257.473 97.8467 258.098 97.5919 258.581 97.0823C259.064 96.5727 259.311 95.9134 259.322 95.1043C259.322 94.3057 259.077 93.649 258.589 93.1342C258.1 92.6193 257.467 92.3619 256.69 92.3619C255.933 92.3619 255.313 92.6167 254.83 93.1263C254.347 93.6359 254.1 94.2952 254.089 95.1043ZM266.178 91.2271C266.367 91.2271 266.535 91.2534 266.682 91.3059L266.603 92.551C266.372 92.488 266.152 92.4565 265.941 92.4565C265.227 92.4565 264.688 92.6903 264.326 93.1578C263.963 93.6254 263.782 94.2847 263.782 95.1358V98.7923H262.553V93.0554C262.553 92.9083 262.532 92.3619 262.49 91.4163H263.656C263.677 92.1518 263.688 92.5563 263.688 92.6298H263.719C263.919 92.2096 264.242 91.8707 264.688 91.6133C265.135 91.3558 265.631 91.2271 266.178 91.2271ZM279.842 86.8771V98.7923H278.613V97.4842H278.582C278.329 97.957 277.946 98.3248 277.431 98.5875C276.916 98.8501 276.354 98.9815 275.745 98.9815C274.704 98.9815 273.835 98.6111 273.136 97.8703C272.437 97.1296 272.078 96.2076 272.057 95.1043C272.057 93.98 272.416 93.0554 273.136 92.3304C273.856 91.6054 274.788 91.2376 275.934 91.2271C276.995 91.2271 277.878 91.6474 278.582 92.488H278.613V86.8771H279.842ZM273.38 95.1043C273.38 95.9134 273.625 96.5701 274.113 97.0744C274.602 97.5788 275.23 97.8362 275.997 97.8467C276.764 97.8467 277.386 97.5945 277.864 97.0902C278.343 96.5858 278.592 95.9239 278.613 95.1043C278.613 94.3057 278.369 93.649 277.88 93.1342C277.392 92.6193 276.759 92.3619 275.981 92.3619C275.225 92.3619 274.607 92.6167 274.129 93.1263C273.651 93.6359 273.402 94.2952 273.38 95.1043ZM282.837 87.6336C283.079 87.6336 283.289 87.7203 283.467 87.8937C283.646 88.0671 283.735 88.2798 283.735 88.532C283.735 88.7947 283.651 89.0101 283.483 89.1782C283.315 89.3463 283.1 89.4304 282.837 89.4304C282.574 89.4304 282.359 89.3463 282.191 89.1782C282.023 89.0101 281.939 88.7947 281.939 88.532C281.939 88.2798 282.028 88.0671 282.207 87.8937C282.385 87.7203 282.595 87.6336 282.837 87.6336ZM283.452 91.4163V98.7923H282.222V91.4163H283.452ZM289.74 91.2271C290.907 91.2271 291.842 91.5949 292.546 92.3304C293.25 93.0659 293.607 93.9905 293.617 95.1043C293.617 96.2076 293.26 97.1243 292.546 97.8546C291.831 98.5848 290.959 98.9605 289.929 98.9815C289.299 98.9815 288.729 98.8449 288.219 98.5717C287.71 98.2985 287.334 97.936 287.092 97.4842H287.061V102.386H285.832V91.4163H287.061V92.488H287.092C287.817 91.6474 288.7 91.2271 289.74 91.2271ZM287.061 95.1043C287.061 95.9134 287.305 96.5674 287.794 97.0665C288.282 97.5656 288.91 97.8257 289.677 97.8467C290.444 97.8467 291.069 97.5919 291.553 97.0823C292.036 96.5727 292.283 95.9134 292.294 95.1043C292.294 94.3057 292.049 93.649 291.561 93.1342C291.072 92.6193 290.439 92.3619 289.661 92.3619C288.905 92.3619 288.285 92.6167 287.802 93.1263C287.318 93.6359 287.071 94.2952 287.061 95.1043ZM296.864 86.8771V98.7923H295.635V86.8771H296.864ZM302.822 91.2271C303.967 91.2271 304.902 91.5817 305.627 92.291C306.352 93.0002 306.731 93.938 306.762 95.1043C306.762 96.2286 306.394 97.1506 305.659 97.8703C304.923 98.5901 303.978 98.9605 302.822 98.9815C301.666 98.9815 300.726 98.6163 300.001 97.8861C299.276 97.1558 298.903 96.2286 298.882 95.1043C298.882 93.9695 299.249 93.0423 299.985 92.3225C300.72 91.6028 301.666 91.2376 302.822 91.2271ZM300.206 95.1043C300.206 95.9134 300.45 96.5674 300.938 97.0665C301.427 97.5656 302.055 97.8257 302.822 97.8467C303.589 97.8467 304.214 97.5919 304.697 97.0823C305.181 96.5727 305.428 95.9134 305.438 95.1043C305.438 94.3057 305.194 93.649 304.705 93.1342C304.217 92.6193 303.584 92.3619 302.806 92.3619C302.05 92.3619 301.43 92.6167 300.946 93.1263C300.463 93.6359 300.216 94.2952 300.206 95.1043ZM312.31 91.2271C313.434 91.2271 314.206 91.6947 314.627 92.6298C314.921 92.1465 315.252 91.7919 315.62 91.566C315.987 91.3401 316.439 91.2271 316.975 91.2271C317.931 91.2271 318.635 91.4767 319.087 91.9758C319.539 92.4749 319.765 93.2288 319.765 94.2375V98.7923H318.535V94.332C318.535 93.0396 317.936 92.3829 316.739 92.3619C316.182 92.3619 315.725 92.5694 315.367 92.9845C315.01 93.3995 314.832 93.9012 314.832 94.4896V98.7923H313.602V94.5211C313.602 93.7961 313.497 93.255 313.287 92.8978C313.077 92.5405 312.704 92.3619 312.168 92.3619C311.422 92.3619 310.857 92.6115 310.474 93.1105C310.09 93.6096 309.898 94.3005 309.898 95.1831V98.7923H308.669V93.0554C308.659 92.6876 308.638 92.1413 308.606 91.4163H309.772C309.793 92.1413 309.804 92.5458 309.804 92.6298H309.835C310.035 92.2096 310.356 91.8707 310.797 91.6133C311.238 91.3558 311.742 91.2271 312.31 91.2271ZM324.934 91.2271C326.006 91.2271 326.786 91.4793 327.275 91.9836C327.763 92.488 328.013 93.2498 328.023 94.269V97.5788C328.023 97.894 328.06 98.2985 328.134 98.7923H326.952C326.899 98.6978 326.873 98.33 326.873 97.6891H326.841C326.285 98.5297 325.475 98.9605 324.414 98.9815C323.605 98.9815 322.946 98.7792 322.436 98.3747C321.927 97.9702 321.672 97.4422 321.672 96.7907C321.672 95.8976 322.04 95.2435 322.775 94.8285C323.511 94.4134 324.661 94.2059 326.227 94.2059H326.794V94.001C326.794 92.9293 326.185 92.3829 324.966 92.3619C324.083 92.3619 323.353 92.6298 322.775 93.1657L322.003 92.3619C322.759 91.6264 323.736 91.2481 324.934 91.2271ZM322.996 96.6646C322.996 97.4947 323.537 97.9202 324.619 97.9413C325.26 97.9413 325.783 97.7364 326.187 97.3266C326.592 96.9168 326.794 96.3179 326.794 95.5298V95.2461H325.439C324.714 95.2461 324.128 95.3617 323.681 95.5929C323.235 95.824 323.006 96.1813 322.996 96.6646ZM337.496 91.2271C338.567 91.2271 339.348 91.4793 339.836 91.9836C340.325 92.488 340.574 93.2498 340.585 94.269V97.5788C340.585 97.894 340.622 98.2985 340.695 98.7923H339.513C339.461 98.6978 339.434 98.33 339.434 97.6891H339.403C338.846 98.5297 338.037 98.9605 336.976 98.9815C336.167 98.9815 335.507 98.7792 334.998 98.3747C334.488 97.9702 334.233 97.4422 334.233 96.7907C334.233 95.8976 334.601 95.2435 335.337 94.8285C336.072 94.4134 337.223 94.2059 338.788 94.2059H339.356V94.001C339.356 92.9293 338.746 92.3829 337.527 92.3619C336.645 92.3619 335.914 92.6298 335.337 93.1657L334.564 92.3619C335.321 91.6264 336.298 91.2481 337.496 91.2271ZM335.557 96.6646C335.557 97.4947 336.098 97.9202 337.181 97.9413C337.821 97.9413 338.344 97.7364 338.749 97.3266C339.153 96.9168 339.356 96.3179 339.356 95.5298V95.2461H338C337.275 95.2461 336.689 95.3617 336.243 95.5929C335.796 95.824 335.568 96.1813 335.557 96.6646ZM345.093 91.2271C346.269 91.2376 347.105 91.6842 347.598 92.5668L346.574 93.2445C346.217 92.6561 345.697 92.3619 345.014 92.3619C344.604 92.3619 344.26 92.4565 343.981 92.6456C343.703 92.8347 343.564 93.0817 343.564 93.3864C343.564 93.8802 344.178 94.2375 345.408 94.4581C346.29 94.6157 346.916 94.8731 347.283 95.2304C347.651 95.5876 347.835 96.0657 347.835 96.6646C347.835 97.3896 347.567 97.957 347.031 98.3668C346.495 98.7766 345.781 98.9815 344.888 98.9815C344.194 98.9815 343.624 98.8711 343.178 98.6505C342.731 98.4298 342.345 98.0831 342.019 97.6103L342.996 96.8538C343.301 97.2215 343.6 97.4789 343.895 97.626C344.189 97.7731 344.52 97.8467 344.888 97.8467C345.36 97.8467 345.749 97.7442 346.054 97.5394C346.359 97.3345 346.511 97.0586 346.511 96.7119C346.511 96.3547 346.351 96.0867 346.03 95.9081C345.71 95.7295 345.177 95.5666 344.431 95.4195C343.695 95.2619 343.162 95.0255 342.831 94.7103C342.5 94.3951 342.334 93.959 342.334 93.4021C342.334 92.7822 342.589 92.2673 343.099 91.8576C343.608 91.4478 344.273 91.2376 345.093 91.2271ZM353.398 91.2271C354.565 91.2271 355.5 91.5949 356.204 92.3304C356.908 93.0659 357.265 93.9905 357.276 95.1043C357.276 96.2076 356.918 97.1243 356.204 97.8546C355.489 98.5848 354.617 98.9605 353.588 98.9815C352.957 98.9815 352.387 98.8449 351.878 98.5717C351.368 98.2985 350.992 97.936 350.751 97.4842H350.719V102.386H349.49V91.4163H350.719V92.488H350.751C351.476 91.6474 352.358 91.2271 353.398 91.2271ZM350.719 95.1043C350.719 95.9134 350.963 96.5674 351.452 97.0665C351.941 97.5656 352.568 97.8257 353.335 97.8467C354.102 97.8467 354.728 97.5919 355.211 97.0823C355.694 96.5727 355.941 95.9134 355.952 95.1043C355.952 94.3057 355.707 93.649 355.219 93.1342C354.73 92.6193 354.097 92.3619 353.32 92.3619C352.563 92.3619 351.943 92.6167 351.46 93.1263C350.977 93.6359 350.73 94.2952 350.719 95.1043ZM359.908 87.6336C360.149 87.6336 360.36 87.7203 360.538 87.8937C360.717 88.0671 360.806 88.2798 360.806 88.532C360.806 88.7947 360.722 89.0101 360.554 89.1782C360.386 89.3463 360.17 89.4304 359.908 89.4304C359.645 89.4304 359.43 89.3463 359.262 89.1782C359.093 89.0101 359.009 88.7947 359.009 88.532C359.009 88.2798 359.099 88.0671 359.277 87.8937C359.456 87.7203 359.666 87.6336 359.908 87.6336ZM360.522 91.4163V98.7923H359.293V91.4163H360.522ZM366.59 91.2271C366.779 91.2271 366.948 91.2534 367.095 91.3059L367.016 92.551C366.785 92.488 366.564 92.4565 366.354 92.4565C365.639 92.4565 365.101 92.6903 364.738 93.1578C364.376 93.6254 364.195 94.2847 364.195 95.1358V98.7923H362.965V93.0554C362.965 92.9083 362.944 92.3619 362.902 91.4163H364.069C364.09 92.1518 364.1 92.5563 364.1 92.6298H364.132C364.331 92.2096 364.654 91.8707 365.101 91.6133C365.547 91.3558 366.044 91.2271 366.59 91.2271ZM371.35 91.2271C372.422 91.2271 373.202 91.4793 373.691 91.9836C374.179 92.488 374.429 93.2498 374.439 94.269V97.5788C374.439 97.894 374.476 98.2985 374.55 98.7923H373.368C373.315 98.6978 373.289 98.33 373.289 97.6891H373.257C372.7 98.5297 371.891 98.9605 370.83 98.9815C370.021 98.9815 369.362 98.7792 368.852 98.3747C368.342 97.9702 368.088 97.4422 368.088 96.7907C368.088 95.8976 368.455 95.2435 369.191 94.8285C369.926 94.4134 371.077 94.2059 372.643 94.2059H373.21V94.001C373.21 92.9293 372.6 92.3829 371.382 92.3619C370.499 92.3619 369.769 92.6298 369.191 93.1657L368.419 92.3619C369.175 91.6264 370.152 91.2481 371.35 91.2271ZM369.412 96.6646C369.412 97.4947 369.953 97.9202 371.035 97.9413C371.676 97.9413 372.199 97.7364 372.603 97.3266C373.008 96.9168 373.21 96.3179 373.21 95.5298V95.2461H371.854C371.129 95.2461 370.544 95.3617 370.097 95.5929C369.651 95.824 369.422 96.1813 369.412 96.6646ZM380.318 91.2271C381.243 91.2271 381.941 91.4951 382.414 92.0309C382.887 92.5668 383.123 93.2813 383.123 94.1744V98.7923H381.894V94.3163C381.894 93.7489 381.763 93.2839 381.5 92.9214C381.237 92.5589 380.807 92.3724 380.208 92.3619C379.451 92.3619 378.881 92.6115 378.498 93.1105C378.114 93.6096 377.922 94.3005 377.922 95.1831V98.7923H376.693V93.0554C376.693 93.0028 376.672 92.4565 376.63 91.4163H377.796C377.817 92.1518 377.828 92.5563 377.828 92.6298H377.859C378.059 92.2096 378.382 91.8707 378.829 91.6133C379.275 91.3558 379.772 91.2271 380.318 91.2271ZM387.316 89.3201V91.4163H389.491V92.4565H387.316V96.3967C387.316 96.9851 387.41 97.3739 387.6 97.563C387.789 97.7521 388.062 97.8467 388.419 97.8467C388.829 97.8467 389.191 97.7626 389.507 97.5945L389.554 98.7135C389.134 98.8922 388.656 98.9815 388.12 98.9815C387.363 98.9815 386.835 98.795 386.536 98.422C386.236 98.049 386.087 97.4369 386.087 96.5858V92.4565H384.479V91.4163H386.087V89.3201H387.316ZM393.258 91.2271C394.435 91.2376 395.27 91.6842 395.764 92.5668L394.739 93.2445C394.382 92.6561 393.862 92.3619 393.179 92.3619C392.769 92.3619 392.425 92.4565 392.147 92.6456C391.868 92.8347 391.729 93.0817 391.729 93.3864C391.729 93.8802 392.344 94.2375 393.573 94.4581C394.456 94.6157 395.081 94.8731 395.449 95.2304C395.816 95.5876 396 96.0657 396 96.6646C396 97.3896 395.732 97.957 395.196 98.3668C394.66 98.7766 393.946 98.9815 393.053 98.9815C392.359 98.9815 391.789 98.8711 391.343 98.6505C390.896 98.4298 390.51 98.0831 390.184 97.6103L391.162 96.8538C391.466 97.2215 391.766 97.4789 392.06 97.626C392.354 97.7731 392.685 97.8467 393.053 97.8467C393.526 97.8467 393.914 97.7442 394.219 97.5394C394.524 97.3345 394.676 97.0586 394.676 96.7119C394.676 96.3547 394.516 96.0867 394.196 95.9081C393.875 95.7295 393.342 95.5666 392.596 95.4195C391.86 95.2619 391.327 95.0255 390.996 94.7103C390.665 94.3951 390.5 93.959 390.5 93.4021C390.5 92.7822 390.754 92.2673 391.264 91.8576C391.774 91.4478 392.438 91.2376 393.258 91.2271Z" fill="#388DA8"/>
<path d="M124.525 54.62H126.8V57H119.45V54.62H121.655V33.13H119.45V30.75H126.8V33.13H124.525V54.62ZM151.864 39.15C153.684 39.15 154.594 40.0483 154.594 41.845V54.62H156.834V57H150.079V54.62H151.759V41.6L144.794 45.975V54.62H146.509V57H139.754V54.62H141.959V41.845H139.754V39.5H144.794V43.14L150.604 39.5C150.977 39.2667 151.397 39.15 151.864 39.15ZM173.927 42.02V54.62H176.762V57H168.397V54.62H171.197V42.02H168.397V39.5H171.197V34.39C171.197 33.06 171.453 32.1267 171.967 31.59C172.48 31.03 173.262 30.75 174.312 30.75H177.217V33.13H173.927V39.5H176.762V42.02H173.927ZM192.023 57C190.833 57 189.993 56.7317 189.503 56.195C189.013 55.635 188.768 54.865 188.768 53.885V42.615C188.768 41.6817 188.978 40.935 189.398 40.375C189.841 39.7917 190.716 39.5 192.023 39.5H198.498C199.781 39.5 200.644 39.7917 201.088 40.375C201.531 40.935 201.753 41.6817 201.753 42.615V53.885C201.753 54.865 201.508 55.635 201.018 56.195C200.528 56.7317 199.688 57 198.498 57H192.023ZM191.603 54.62H198.918V41.88H191.603V54.62ZM226.364 30.75C228.09 30.75 229.28 31.135 229.934 31.905C230.61 32.6517 230.949 33.795 230.949 35.335V52.415C230.949 54.025 230.575 55.1917 229.829 55.915C229.082 56.6383 227.927 57 226.364 57H214.009V54.62H216.214V33.13H214.009V30.75H226.364ZM228.079 33.13H219.084V54.62H228.079V33.13ZM248.607 54.62H250.882V57H243.532V54.62H245.737V41.88H243.532V39.5H248.607V54.62ZM247.172 33.06C247.662 33.06 248.07 33.2467 248.397 33.62C248.747 33.97 248.922 34.4017 248.922 34.915C248.922 35.405 248.747 35.825 248.397 36.175C248.07 36.5017 247.65 36.665 247.137 36.665C246.647 36.665 246.227 36.5017 245.877 36.175C245.55 35.825 245.387 35.405 245.387 34.915C245.387 34.4017 245.562 33.97 245.912 33.62C246.262 33.2467 246.682 33.06 247.172 33.06ZM267.5 54.62H274.92V41.635L267.5 46.29V54.62ZM262.46 63.37H264.63V41.915H262.425V39.5H267.5V43.49L273.555 39.675C274.115 39.325 274.71 39.15 275.34 39.15C275.97 39.15 276.518 39.3483 276.985 39.745C277.475 40.1183 277.72 40.6783 277.72 41.425V53.71C277.72 54.7833 277.568 55.5183 277.265 55.915C276.682 56.6383 275.783 57 274.57 57H267.5V63.37H269.81V65.75H262.46V63.37ZM295.057 54.62H297.332V57H289.982V54.62H292.187V33.13H289.982V30.75H295.057V54.62ZM312.472 57C311.282 57 310.442 56.7317 309.952 56.195C309.462 55.635 309.217 54.865 309.217 53.885V42.615C309.217 41.6817 309.427 40.935 309.847 40.375C310.29 39.7917 311.165 39.5 312.472 39.5H318.947C320.23 39.5 321.094 39.7917 321.537 40.375C321.98 40.935 322.202 41.6817 322.202 42.615V53.885C322.202 54.865 321.957 55.635 321.467 56.195C320.977 56.7317 320.137 57 318.947 57H312.472ZM312.052 54.62H319.367V41.88H312.052V54.62ZM354.583 39.15C356.403 39.15 357.313 40.0483 357.313 41.845V54.62H359.553V57H352.798V54.62H354.478V41.6L348.073 45.59V54.62H349.788V57H343.523V54.62H345.203L345.238 54.48V41.565L338.798 45.59V54.62H340.513V57H333.758V54.62H335.963V41.845H333.758V39.5H338.798V42.825L344.083 39.5C344.456 39.2667 344.876 39.15 345.343 39.15C347.163 39.15 348.073 40.0483 348.073 41.845V42.79L353.323 39.5C353.696 39.2667 354.116 39.15 354.583 39.15ZM385.571 54.62V57H373.391C372.201 57 371.396 56.7667 370.976 56.3C370.603 55.88 370.416 55.0867 370.416 53.92V52.625C370.416 51.785 370.521 51.2133 370.731 50.91C371.035 50.4667 371.723 49.9183 372.796 49.265L380.496 44.47V41.88H373.636V43.91H371.396V39.5H380.146C381.336 39.5 382.165 39.7567 382.631 40.27C383.121 40.7833 383.366 41.53 383.366 42.51V54.62H385.571ZM380.496 47.27L373.216 51.82V54.62H380.496V47.27Z" fill="#388DA8"/>
</g>
<defs>
<clipPath id="clip0_143_181">
<rect width="396" height="125.901" fill="white"/>
</clipPath>
</defs>
</svg>
